<?xml version="1.0" encoding="utf-8"?><svg viewBox="0 0 227 227" xmlns="http://www.w3.org/2000/svg" xmlns:xlink="http://www.w3.org/1999/xlink"><style>:root>svg{display:none}:root>svg:target{display:block}</style><svg fill="none" viewBox="0 0 24 24" id="document" xmlns="http://www.w3.org/2000/svg"><path d="M4.8 5.756h5.344v6.394H4.8V5.756Zm7.463 0h4.275v1.069h-4.275V5.756Zm0 5.344h4.275v1.069h-4.275v-1.07Zm0-2.681h4.275v1.068h-4.275V8.42ZM4.8 13.799H16.52v1.07H4.8v-1.07Zm0 5.213H16.52v1.07H4.8v-1.07Zm0-2.68H16.52V17.4H4.8V16.33ZM4.5.3v2.044H2.138v21.412H19.5v-2.044h2.363V.3H4.5Zm13.931 22.406H3.188V3.394H18.43v19.312Zm2.382-2.062H19.5V2.324H5.57V1.37h15.244v19.275Z" fill="#A0A0A0"/></svg><svg fill="none" viewBox="0 0 24 24" id="government" xmlns="http://www.w3.org/2000/svg"><g clip-path="url(#ba)"><path d="M23.156 22.613V13.65H15.75v-1.462h-.525v-1.37h-.431V8.795h.487v-.975h-.487v-.431c0-1.557-1.05-2.87-2.419-3.113V2.72h-.244V.788h-.506v1.95h-.244v1.556c-1.387.244-2.418 1.556-2.418 3.112v.432h-.488v.975h.488v2.025H8.53v1.35h-.525v1.462H.826v8.981H-.02v1.463h24.02V22.63l-.845-.018Zm-9.112-13.82v2.026h-.488V8.794h.488Zm-.956 0v2.026H12.6V8.794h.488Zm-.975 0v2.026h-.488V8.794h.488Zm-.975 0v2.026h-.488V8.794h.488Zm-1.463 0h.488v2.026h-.488V8.794Zm-5.7 13.82H2.756v-4.594h1.22v4.594Zm0-5.57H2.756v-1.95h1.22v1.95Zm2.194 5.57H4.95v-4.594H6.17v4.594Zm0-5.57H4.95v-1.95H6.17v1.95Zm1.931 5.57H6.881v-4.594h1.22v4.594Zm0-5.57H6.881v-1.95h1.22v1.95Zm2.194 5.57H9.075v-4.594h1.219v4.594Zm0-5.57H9.075v-1.95h1.219v1.95Zm2.175 5.57H11.25v-4.594h1.219v4.594Zm0-5.57H11.25v-1.95h1.219v1.95Zm2.194 5.57h-1.22v-4.594h1.22v4.594Zm0-5.57h-1.22v-1.95h1.22v1.95Zm2.175 5.57h-1.22v-4.594h1.22v4.594Zm0-5.57h-1.22v-1.95h1.22v1.95Zm2.193 5.57h-1.218v-4.594h1.218v4.594Zm0-5.57h-1.218v-1.95h1.218v1.95Zm2.175 5.57h-1.218v-4.594h1.218v4.594Zm0-5.57h-1.218v-1.95h1.218v1.95Z" fill="#A0A0A0"/></g><defs><clipPath id="ba"><path fill="#fff" d="M0 0h24v24H0z"/></clipPath></defs></svg><svg fill="none" viewBox="0 0 24 24" id="guarantee" xmlns="http://www.w3.org/2000/svg"><g clip-path="url(#ca)"><g clip-path="url(#cb)"><path d="M12 .923c1.384 0 2.506 1.518 3.734 2.04 1.227.521 3.147.235 4.08 1.223.932.988.697 2.801 1.223 4.08.526 1.278 2.04 2.35 2.04 3.734s-1.519 2.506-2.04 3.734c-.522 1.227-.236 3.147-1.223 4.08-.988.932-2.802.706-4.08 1.223-1.279.517-2.35 2.04-3.734 2.04-1.385 0-2.506-1.519-3.734-2.04-1.228-.522-3.148-.236-4.08-1.223-.932-.988-.706-2.802-1.223-4.08C2.446 14.455.923 13.384.923 12c0-1.385 1.518-2.506 2.04-3.734.521-1.228.235-3.148 1.223-4.08.988-.932 2.801-.706 4.08-1.223C9.544 2.446 10.616.923 12 .923Zm0 3.498A7.578 7.578 0 1 0 19.578 12 7.601 7.601 0 0 0 12 4.42Zm3.517 4.223.743.702a.577.577 0 0 1 0 .697l-4.685 5.22a.957.957 0 0 1-.743.323 1.028 1.028 0 0 1-.743-.323l-2.534-2.525a.46.46 0 0 1-.046-.655l.046-.05.752-.698a.507.507 0 0 1 .711-.032l.033.032 1.795 1.846 3.964-4.523a.508.508 0 0 1 .707-.014Z" fill="#A0A0A0"/></g></g><defs><clipPath id="ca"><path fill="#fff" d="M0 0h24v24H0z"/></clipPath><clipPath id="cb"><path fill="#fff" d="M0 0h24v24H0z"/></clipPath></defs></svg><svg fill="none" viewBox="0 0 24 24" id="house" xmlns="http://www.w3.org/2000/svg"><path d="M.268 11.925c0 .482.381.773.853.773.292 0 .523-.14.724-.341l9.803-8.93a.496.496 0 0 1 .713 0l9.794 8.93c.21.2.442.341.723.341.472 0 .854-.291.854-.773a.817.817 0 0 0-.301-.663l-3.476-3.164V2.16c0-.442-.281-.723-.723-.723h-1.316c-.432 0-.733.281-.733.723v3.415L13.205 1.94A1.755 1.755 0 0 0 12 1.448c-.422 0-.844.16-1.206.492L.57 11.262c-.18.17-.301.361-.301.663Zm2.872 8.427c0 1.396.844 2.21 2.26 2.21h4.068V15.42c0-.462.312-.763.774-.763h3.546c.462 0 .763.301.763.763v7.142h4.058c1.416 0 2.25-.814 2.25-2.21v-7.353l-8.528-7.684a.523.523 0 0 0-.351-.15c-.11 0-.221.05-.342.16L3.14 13.05v7.302Z" fill="#A0A0A0"/></svg><svg fill="none" viewBox="0 0 78 18" id="logo" xmlns="http://www.w3.org/2000/svg"><path d="M6.8 15.26c-.84 0-1.62-.087-2.34-.26a5.533 5.533 0 0 1-1.9-.88c-.533-.4-.967-.92-1.3-1.56-.32-.64-.507-1.427-.56-2.36h3.72c.093.72.347 1.247.76 1.58.413.32.96.48 1.64.48.333 0 .647-.047.94-.14a2.05 2.05 0 0 0 .82-.48c.24-.24.44-.547.6-.92.16-.387.273-.867.34-1.44H5.3V6.52h4.2c-.133-1.04-.433-1.76-.9-2.16-.467-.413-1.067-.62-1.8-.62-.267 0-.533.04-.8.12a1.846 1.846 0 0 0-.7.36c-.213.16-.4.373-.56.64-.16.253-.267.567-.32.94H.7c.067-.92.267-1.7.6-2.34.347-.64.787-1.16 1.32-1.56a5.549 5.549 0 0 1 1.88-.88A8.985 8.985 0 0 1 6.8.74c.907 0 1.753.133 2.54.4.8.267 1.493.68 2.08 1.24.587.56 1.047 1.28 1.38 2.16.333.88.5 1.933.5 3.16v.38c0 1.307-.16 2.413-.48 3.32-.32.907-.767 1.647-1.34 2.22-.56.573-1.24.993-2.04 1.26-.8.253-1.68.38-2.64.38ZM15.2 4.4h3.08v4.02h.8l2.96-4.02h3.36l-3.9 4.98L25.6 15h-3.64l-2.88-4.22h-.8V15H15.2V4.4Zm16.21 10.86a6.726 6.726 0 0 1-2.1-.32 4.871 4.871 0 0 1-1.72-1.02 4.698 4.698 0 0 1-1.16-1.7c-.28-.693-.42-1.5-.42-2.42v-.4c0-.867.14-1.627.42-2.28.28-.653.667-1.2 1.16-1.64a5.03 5.03 0 0 1 1.72-1 6.363 6.363 0 0 1 2.1-.34c.747 0 1.447.113 2.1.34.654.227 1.227.56 1.72 1 .494.44.88.987 1.16 1.64.28.653.42 1.413.42 2.28v.4c0 .907-.14 1.707-.42 2.4a4.7 4.7 0 0 1-1.16 1.7 4.873 4.873 0 0 1-1.72 1.02 6.363 6.363 0 0 1-2.1.34Zm0-2.56c.72 0 1.274-.26 1.66-.78.387-.52.58-1.227.58-2.12v-.4c0-.8-.193-1.447-.58-1.94-.386-.507-.94-.76-1.66-.76s-1.273.253-1.66.76c-.387.493-.58 1.14-.58 1.94v.4c0 .92.193 1.633.58 2.14.387.507.94.76 1.66.76Zm6.292-.66h1.6c.174-.453.314-.973.42-1.56.12-.6.214-1.233.28-1.9.067-.68.114-1.373.14-2.08.04-.72.06-1.42.06-2.1V1h10.28v11.04h1.42v5.56h-3.12V15h-7.96v2.6h-3.12v-5.56Zm9.18 0V3.96h-3.32v.84c0 1.627-.066 3.033-.2 4.22-.12 1.173-.32 2.18-.6 3.02h4.12Zm11.52 3.22a6.727 6.727 0 0 1-2.1-.32 4.873 4.873 0 0 1-1.72-1.02 4.7 4.7 0 0 1-1.16-1.7c-.28-.693-.42-1.5-.42-2.42v-.4c0-.867.14-1.627.42-2.28.28-.653.667-1.2 1.16-1.64a5.032 5.032 0 0 1 1.72-1 6.363 6.363 0 0 1 2.1-.34c.747 0 1.447.113 2.1.34a5.03 5.03 0 0 1 1.72 1c.494.44.88.987 1.16 1.64.28.653.42 1.413.42 2.28v.4c0 .907-.14 1.707-.42 2.4a4.698 4.698 0 0 1-1.16 1.7 4.871 4.871 0 0 1-1.72 1.02 6.362 6.362 0 0 1-2.1.34Zm0-2.56c.72 0 1.274-.26 1.66-.78.387-.52.58-1.227.58-2.12v-.4c0-.8-.193-1.447-.58-1.94-.386-.507-.94-.76-1.66-.76s-1.273.253-1.66.76c-.386.493-.58 1.14-.58 1.94v.4c0 .92.194 1.633.58 2.14.387.507.94.76 1.66.76Zm6.992-8.3h3.74l2.52 5.26 2.52-5.26h3.62V15h-2.92V8.5l-2.28 4.5h-2l-2.28-4.5V15h-2.92V4.4Z" fill="#fff"/></svg><svg fill="none" viewBox="0 0 28 28" id="money-bag" xmlns="http://www.w3.org/2000/svg"><g clip-path="url(#fa)" fill="#A0A0A0"><path d="M4.8 23.522c.42 0 .761-.232.761-.52 0-.286-.34-.52-.762-.52-.42 0-.762.234-.762.52 0 .288.341.52.762.52Z"/><path d="m27.125 20.418-.286-.168c-.022-.013-2.208-1.31-2.752-2.884l-.12-.349-.225.293c-.007.009-.317.393-1.187.844-.643-3.664-2.832-8.037-5.71-9.901.823.066 1.648-.002 2.444-.292.48-.174.273-.955-.21-.779-.654.238-1.308.303-1.96.27 1.602-1.47 2.86-3.72 2.86-5.366 0-.395 0-1.132-.586-1.132-.235 0-.426.147-.689.35-.403.311-1.012.782-1.907.782-.34 0-.964-.36-1.466-.648-.606-.35-.993-.563-1.318-.563-.54 0-1.332.436-2.03.82-.285.156-.674.37-.755.391-1.013 0-1.601-.467-1.992-.776-.227-.181-.392-.313-.612-.313-.577 0-.577.692-.577 1.493 0 1.546 1.178 3.587 2.72 4.959-.971.07-1.93.363-2.603 1.015-.372.36.192.93.562.572.56-.543 1.294-.775 2.079-.82.022.08.049.159.082.236-3.288 2.363-5.624 7.974-5.624 11.762 0 .373.029.712.074 1.03-.848-.377-1.158-.707-1.164-.714l-.225-.26-.112.328c-.49 1.445-2.627 2.699-2.648 2.712l-.313.181.318.172c.112.06.222.113.334.17l-.201.14.106 1.33 8.336 1.822 3.16-2.022c.32.002.642.003.97.003l3.695 2.019 8.351-2.625v-1.404l-.22-.133c.11-.07.22-.14.33-.214l.292-.196-.064-.031.372-.102.063-1.46-.215-.152c.115-.07.229-.14.343-.212l.28-.178M8.843 2.49c0-.194.003-.345.007-.463.067.052.145.11.228.169.255.61.737 1.49 1.555 2.044.994.674.862-.1 1.393-.808.53-.706.889-1.076 1.777.74.387.793 1.032-1.421 1.646-1.744.162.088.324.17.483.24 1.1 1.789 1.61 1.231 2.586-.256.269-.157.49-.326.665-.461l.001.136c0 1.404-1.147 3.418-2.552 4.732a1.572 1.572 0 0 0-.281-.46c-.568-.643-1.455.07-1.875.537-.746-.24-1.961-.9-2.753-.522a2.018 2.018 0 0 0-.537.364C9.891 5.558 8.843 3.853 8.843 2.49m7.09 4.801a11.594 11.594 0 0 1-.585-.14c.244-.21.468-.284.562.03.01.033.016.072.022.11m-3.325.272a7.493 7.493 0 0 0-.446-.072 6.23 6.23 0 0 1-.341-.23c.4-.268 1.09-.125 1.748.098a4.742 4.742 0 0 0-.96.204m.198 1.155a1.23 1.23 0 0 1-.742-.055c.093-.05.188-.092.282-.136.153.074.306.136.46.191ZM4.714 24.666A17.201 17.201 0 0 1 1.69 23.47c.593-.39 1.887-1.334 2.412-2.468.36.283 1.193.8 2.814 1.196-.028.044-.062.092-.094.139-1.383-.362-2.17-.82-2.183-.828l-.19-.114-.092.204c-.12.268-.402.308-.56.308-.043 0-.073-.003-.077-.003l-.156-.023-.057.15c-.116.305-.594.704-.769.832l-.292.215.334.137c.125.05.158.097.16.11.004.03-.049.11-.105.155l-.255.205.297.137c.606.28 1.294.512 1.981.703l-.144.14Zm3.528-1.63c.611.085 1.289.14 2.03.14.154 0 .31-.003.47-.008a.37.37 0 0 0 .044.093.46.46 0 0 0 .158.147l-1.116.954-.064-.002c-.498 0-.869.183-1.047.509a29.9 29.9 0 0 1-2.013-.327c.536-.477 1.05-.98 1.538-1.506m-4.966.523a.445.445 0 0 0-.077-.55c.196-.168.467-.428.616-.697.338-.005.617-.133.793-.36.296.155.964.468 1.95.739a20.401 20.401 0 0 1-1.369 1.505 14.307 14.307 0 0 1-1.913-.637m6.235 1.842h-.09c-.376 0-1.624-.03-3.273-.374l.173-.147c1.338.28 2.417.4 2.498.408l.16.017.05-.155c.107-.335.506-.384.734-.384.063 0 .104.004.11.004l.084.01 1.94-1.658-.519-.017c-.173-.006-.246-.045-.264-.072l.11-.287-.304.012a14.11 14.11 0 0 1-2.35-.09l.121-.142c1.057.14 2.323.228 3.851.217-.365.512-1.275 1.6-3.03 2.658m4.385-1.901v.798c-.25 0-.492 0-.729-.002l-.071-.899-.592.048c.399-.471.569-.786.584-.814l.16-.304-.338.006c-3.246.06-5.362-.327-6.698-.757a5.633 5.633 0 0 1-.154-1.362c0-3.554 2.27-8.925 5.286-11.102.534.517 1.344.743 2.114.24.17-.11.316-.255.454-.408.033 0 .066.008.1.008.11 0 .222-.01.334-.023.14.056.28.113.407.17.614.27 1.138.102 1.496-.27 2.762 1.67 4.975 6.091 5.557 9.665-1.262.505-3.265.997-6.34 1.084.607-.346 1.062-.93.899-1.695-.172-.81-.849-1.037-1.55-1.074 0-.38 0-.76.002-1.14.215.095.42.205.608.322.33.207.63-.331.301-.539a4.505 4.505 0 0 0-.906-.437c.004-.44.006-.88.006-1.319 0-.402-.597-.402-.597 0 0 .387-.003.773-.006 1.158a3.107 3.107 0 0 0-.964-.016 11.58 11.58 0 0 0-.189-.862c-.099-.388-.676-.224-.576.165.074.28.133.558.183.84-.026.01-.053.015-.078.026-.81.32-1.305 1.138-.712 1.901.276.355.637.499 1.032.546.022.527.035 1.054.05 1.58a3.993 3.993 0 0 1-.724-.626c-.27-.285-.692.155-.422.44.367.39.752.686 1.17.875.019.45.046.9.09 1.347.038.397.636.399.598 0a23.394 23.394 0 0 1-.082-1.162c.227.039.466.049.72.025.028.414.062.828.109 1.242a.33.33 0 0 0 .42.282l-.037.859c-.263.024-.532.046-.812.064l-.333.022.178.287c.018.029.22.348.67.812h-.618V23.5Zm10.888-2.88c-.55.259-1.245.496-1.954.703-.436-.45-.993-1.051-1.41-1.584.928-.28 1.447-.57 1.68-.727.186.164.43.248.72.248.097 0 .182-.01.248-.02.21.273.549.587.76.774a.457.457 0 0 0-.144.34.461.461 0 0 0 .1.266m-3.13 1.438c.09.079.181.16.276.24-1.774.47-3.094.522-3.381.527-1.837-1.12-2.79-2.306-3.156-2.84 1.537-.038 2.807-.178 3.867-.37.043.054.087.106.13.158-.85.133-1.71.218-2.57.255l-.354.015.195.297s-.04.074-.3.125l-.425.083 2.085 1.687.097-.026c.002 0 .186-.05.408-.05.32 0 .54.098.65.288l.07.121.136-.024c.762-.139 1.52-.301 2.272-.486m-6.168-1.286-.497-.027a32.86 32.86 0 0 1-.064-.746c.087.146.267.419.562.773Zm-.616-1.602a45.923 45.923 0 0 1-.052-1.768c.072.003.143.01.21.02.774.116.976.977.372 1.46a1.954 1.954 0 0 1-.53.288Zm4.568 2.954c-.196-.242-.508-.368-.912-.368-.168 0-.317.022-.41.04l-1.31-1.061a.494.494 0 0 0 .222-.239.409.409 0 0 0 .023-.075 23.219 23.219 0 0 0 2.653-.287c.36.4.886.952 1.586 1.594a41.73 41.73 0 0 1-1.852.396m-5.218-4.706c.008.634.024 1.27.058 1.903-.057.01-.112.02-.168.026a1.485 1.485 0 0 1-.536-.038c-.022-.612-.036-1.226-.059-1.839.236-.01.474-.034.705-.052m-.735-.553c-.027-.481-.073-.96-.136-1.438.29-.04.585-.025.87.044-.004.448-.004.895-.003 1.342-.192.01-.374.029-.535.043-.065.005-.13.008-.196.009m-.6-.077c-.037-.01-.074-.018-.112-.03a1.17 1.17 0 0 1-.463-.292c-.373-.349.14-.691.463-.853.05.389.085.782.112 1.175m4.828 8.517c-1.899-.97-2.918-2.05-3.322-2.549.29-.022.566-.048.838-.076l3.114 2.022 6.83-1.876c-3.522 2.122-7.002 2.446-7.46 2.479m5.64-3.452-.201-.203c.777-.235 1.528-.508 2.089-.808l.34-.184-.345-.176c-.078-.04-.153-.112-.155-.14.001-.01.032-.066.164-.143l.253-.145-.225-.187c-.007-.006-.708-.588-.954-.963l-.082-.123-.14.041s-.12.035-.276.035c-.24 0-.421-.079-.537-.233l-.127-.17-.16.138c-.009.007-.504.413-1.834.798a4.523 4.523 0 0 1-.126-.193c1.612-.489 2.436-1.08 2.793-1.404.573 1.24 1.937 2.239 2.53 2.63a16.618 16.618 0 0 1-3.006 1.43"/><path d="M19.416 20.614c-.436-.119-.928-.038-1.1.179-.172.217.044.491.48.61.437.119.929.038 1.101-.18.171-.217-.044-.49-.48-.61Z"/></g><defs><clipPath id="fa"><path fill="#fff" d="M0 0h28v28H0z"/></clipPath></defs></svg><svg fill="none" viewBox="0 0 227 227" id="scroll" xmlns="http://www.w3.org/2000/svg"><path d="M100.733 213.686c.468.06.902.196 1.302.408.4.221.74.522 1.022.905.281.391.482.864.605 1.42.122.556.136 1.203.042 1.941l-.031.238c-.091.714-.265 1.317-.521 1.809-.256.491-.569.883-.937 1.174-.368.292-.772.49-1.213.595-.442.113-.897.14-1.365.08a4.085 4.085 0 0 1-1.215-.337 3.16 3.16 0 0 1-.934-.64 2.573 2.573 0 0 1-.586-.909 2.945 2.945 0 0 1-.204-1.151l1.19.152c.043.554.225.988.548 1.304.322.315.765.509 1.329.581.293.038.586.019.878-.057a2.04 2.04 0 0 0 .819-.44c.244-.21.459-.506.645-.885.178-.381.303-.857.376-1.428l.031-.238c.077-.603.07-1.12-.02-1.551-.091-.423-.231-.776-.421-1.058a1.986 1.986 0 0 0-.68-.643 2.175 2.175 0 0 0-.788-.27c-.62-.08-1.123.009-1.51.266a1.868 1.868 0 0 0-.78 1.086l-1.19-.152c.122-.452.3-.833.533-1.142.232-.301.508-.54.83-.716a2.939 2.939 0 0 1 1.048-.35 4.666 4.666 0 0 1 1.197.008ZM88.054 220.093l-1.09-.293.938-3.488-.927-.249-4.113 2.635-1.298-.348 4.586-2.919-2.523-5.225 1.391.374 2.2 4.579.927.249.999-3.72 1.09.292-2.18 8.113ZM73.916 215.707l-2.66-1.102c-.51-.212-.93-.455-1.257-.729-.328-.275-.57-.569-.725-.885a2.01 2.01 0 0 1-.242-.983c.001-.338.074-.68.218-1.027.144-.348.336-.645.577-.891.238-.239.526-.414.867-.524.33-.106.707-.14 1.133-.102.426.038.894.162 1.404.374l1.618.67 1.24-2.993 1.043.432-3.216 7.76Zm-1.007-4.937a3.937 3.937 0 0 0-.972-.286 1.855 1.855 0 0 0-.745.042 1.097 1.097 0 0 0-.536.323c-.151.154-.272.342-.364.564-.092.221-.14.44-.142.655-.01.213.04.415.15.608.104.19.271.372.502.546.22.178.516.343.885.496l1.564.648 1.222-2.949-1.564-.647ZM62.814 200.963c.416.24.778.541 1.086.903.304.37.52.789.645 1.259.126.47.146.989.058 1.557s-.32 1.178-.695 1.83l-.12.208c-.36.623-.76 1.108-1.2 1.455-.44.346-.893.579-1.359.698-.47.126-.939.147-1.407.061a4.12 4.12 0 0 1-1.325-.487 4.102 4.102 0 0 1-1.086-.904 3.172 3.172 0 0 1-.651-1.248c-.13-.463-.156-.972-.076-1.526.08-.555.3-1.144.66-1.767l.12-.208c.375-.652.787-1.157 1.235-1.518.448-.36.907-.603 1.377-.729s.94-.15 1.413-.072a4.1 4.1 0 0 1 1.325.488Zm-.504.873a2.558 2.558 0 0 0-.91-.318 2.13 2.13 0 0 0-.979.087c-.333.113-.66.312-.982.597-.332.288-.645.686-.936 1.191l-.12.208c-.276.478-.45.923-.52 1.335-.083.414-.085.787-.008 1.118.073.337.21.634.414.89s.447.466.731.629c.285.164.588.27.911.318.324.048.65.019.979-.086.325-.099.65-.286.974-.561.314-.271.608-.646.884-1.124l.12-.208c.292-.506.483-.973.573-1.401.08-.426.084-.811.015-1.155a2.125 2.125 0 0 0-.414-.89 2.558 2.558 0 0 0-.732-.63ZM54.443 195.663c.095.074.182.157.263.249l-.676.873a1.057 1.057 0 0 0-.135-.119 1.115 1.115 0 0 0-.376-.2.738.738 0 0 0-.433.029c-.164.055-.35.164-.557.328a5.853 5.853 0 0 0-.735.675c-.281.298-.604.67-.97 1.116-.365.446-.79.982-1.274 1.608l-1.175 1.519-4.46-3.452 5.14-6.643.892.69-4.539 5.865 2.677 2.071.72-.93a39.05 39.05 0 0 1 1.472-1.804 16.02 16.02 0 0 1 1.177-1.228c.352-.325.669-.57.95-.737.28-.167.542-.269.782-.305.23-.035.446-.014.65.062.208.071.41.182.607.333ZM43.873 186.971c.084.085.16.179.226.281l-.787.775a.938.938 0 0 0-.118-.137 1.13 1.13 0 0 0-.345-.249.737.737 0 0 0-.433-.029c-.17.032-.369.115-.596.249a5.873 5.873 0 0 0-.82.57c-.318.258-.689.583-1.11.975-.423.393-.916.867-1.48 1.422l-1.37 1.346-3.954-4.021 5.99-5.89.79.804-5.288 5.2 2.373 2.413.838-.825c.634-.622 1.201-1.152 1.703-1.589.495-.431.94-.784 1.332-1.058.393-.274.74-.475 1.04-.602.301-.128.573-.193.817-.197.232-.004.443.046.635.15.197.097.383.235.556.412ZM27.302 170.233c.11.167.184.343.221.53.03.191.027.375-.009.552a1.538 1.538 0 0 1-.208.512 1.473 1.473 0 0 1-.411.401c-.167.11-.344.184-.53.221a1.55 1.55 0 0 1-.553-.009 1.369 1.369 0 0 1-.502-.215 1.35 1.35 0 0 1-.41-.405 1.348 1.348 0 0 1-.211-.537 1.368 1.368 0 0 1-.001-.545c.036-.178.108-.345.215-.502a1.34 1.34 0 0 1 .404-.411c.167-.11.346-.18.537-.211.187-.037.368-.037.546-.001.177.037.348.106.512.209.157.107.29.244.4.411ZM19.853 152.029c.18.437.276.882.29 1.335.006.456-.088.901-.281 1.335-.2.437-.512.847-.935 1.228-.422.382-.978.714-1.666.998l-.222.091c-.666.274-1.275.421-1.83.442-.553.02-1.048-.057-1.484-.233a3.069 3.069 0 0 1-1.117-.76 3.615 3.615 0 0 1-.745-1.146 4.095 4.095 0 0 1-.308-1.223 3.162 3.162 0 0 1 .093-1.129 2.58 2.58 0 0 1 .5-.958c.234-.295.534-.544.9-.747l.457 1.11c-.46.31-.748.684-.862 1.12-.115.437-.064.918.152 1.443a2.3 2.3 0 0 0 .485.735c.21.216.472.381.787.493.304.109.667.15 1.089.123.418-.034.894-.16 1.426-.38l.222-.091c.563-.231 1.009-.493 1.338-.784.323-.289.56-.585.711-.89.152-.305.226-.608.223-.909a2.192 2.192 0 0 0-.155-.819c-.238-.577-.564-.97-.98-1.18a1.861 1.861 0 0 0-1.329-.14l-.457-1.11a3.313 3.313 0 0 1 1.256-.102c.377.053.721.175 1.034.366.309.185.583.431.822.739.23.303.425.651.586 1.043ZM8.011 144.183l-.284-1.092 3.495-.912-.243-.929-4.325-2.269-.34-1.3 4.806 2.541 3.292-4.779.364 1.394-2.891 4.177.242.929 3.727-.973.285 1.092-8.128 2.121ZM4.825 129.727l-.358-2.858c-.069-.547-.065-1.032.011-1.452.076-.421.213-.777.41-1.068a2.01 2.01 0 0 1 .735-.697 2.695 2.695 0 0 1 1-.319 2.785 2.785 0 0 1 1.06.061c.326.088.62.252.885.493.255.235.471.546.649.935.178.389.301.857.37 1.405l.218 1.738 3.215-.403.14 1.119-8.335 1.046Zm3.793-3.318a4.006 4.006 0 0 0-.233-.987 1.869 1.869 0 0 0-.405-.626 1.1 1.1 0 0 0-.546-.307 1.79 1.79 0 0 0-.67-.037 1.75 1.75 0 0 0-.64.202c-.19.096-.34.24-.454.432-.114.183-.19.418-.226.705-.045.28-.043.618.007 1.015l.21 1.679 3.167-.397-.21-1.679ZM12.145 112.783a4.11 4.11 0 0 1-.248 1.391c-.17.447-.429.841-.775 1.184-.346.342-.787.615-1.324.82-.538.205-1.182.306-1.934.301l-.24-.001c-.72-.004-1.34-.112-1.858-.322-.52-.211-.946-.49-1.28-.836a3.17 3.17 0 0 1-.749-1.192 4.107 4.107 0 0 1-.232-1.393 4.11 4.11 0 0 1 .248-1.391 3.18 3.18 0 0 1 .762-1.184c.338-.342.768-.615 1.289-.82.521-.205 1.142-.306 1.862-.302l.24.001c.752.005 1.395.112 1.93.323.535.211.973.49 1.315.836.342.346.596.743.761 1.192.158.449.235.913.233 1.393Zm-1.008-.005a2.557 2.557 0 0 0-.175-.949 2.139 2.139 0 0 0-.56-.808 2.894 2.894 0 0 0-1.004-.557c-.416-.147-.915-.221-1.5-.225l-.24-.001c-.551-.003-1.024.066-1.416.208-.401.134-.726.316-.975.547-.258.23-.447.497-.569.801a2.553 2.553 0 0 0-.185.946c-.002.328.056.645.174.949.119.305.305.574.56.808.247.233.57.423.969.569.391.138.863.209 1.415.212l.24.001c.584.004 1.084-.062 1.5-.195a3.04 3.04 0 0 0 1.012-.559 2.13 2.13 0 0 0 .568-.8c.122-.304.184-.619.186-.947ZM12.607 102.886a1.821 1.821 0 0 1-.086.351l-1.094-.155a.98.98 0 0 0 .038-.176 1.13 1.13 0 0 0-.013-.426.737.737 0 0 0-.24-.361 1.92 1.92 0 0 0-.56-.322 5.942 5.942 0 0 0-.95-.305 22.391 22.391 0 0 0-1.45-.29 73.355 73.355 0 0 0-2.028-.312l-1.901-.269.792-5.585 8.316 1.18-.158 1.117-7.342-1.042-.476 3.35 1.165.166c.879.125 1.644.253 2.296.386.644.132 1.194.271 1.65.416.456.146.826.299 1.11.461.285.161.502.337.653.528.144.182.233.381.267.596.042.216.046.447.01.692ZM14.93 89.399a1.83 1.83 0 0 1-.133.336l-1.062-.3a.996.996 0 0 0 .06-.17c.044-.154.059-.296.046-.424a.74.74 0 0 0-.19-.39 1.946 1.946 0 0 0-.511-.395 5.915 5.915 0 0 0-.901-.43 21.58 21.58 0 0 0-1.397-.483 75.441 75.441 0 0 0-1.968-.583l-1.847-.523 1.538-5.427 8.081 2.29-.307 1.086-7.135-2.022-.923 3.256 1.132.32c.854.243 1.595.473 2.223.693.62.217 1.147.429 1.579.634.432.206.778.408 1.038.606.26.199.451.403.575.612.118.2.18.409.184.626.013.22-.015.45-.082.688ZM21.274 66.718c-.09.178-.207.33-.35.454-.152.12-.313.209-.485.265a1.54 1.54 0 0 1-.548.072 1.476 1.476 0 0 1-.552-.159 1.476 1.476 0 0 1-.454-.35 1.536 1.536 0 0 1-.266-.486 1.37 1.37 0 0 1-.061-.542c.008-.193.058-.379.148-.557.09-.178.211-.328.362-.449a1.37 1.37 0 0 1 .474-.27c.172-.057.353-.078.542-.062.193.008.38.058.558.148.178.09.328.211.448.362.125.144.215.302.271.474.056.172.08.355.072.548-.015.19-.068.373-.159.552ZM33.406 51.236c-.29.372-.63.676-1.016.912a3.15 3.15 0 0 1-1.3.417c-.479.042-.989-.026-1.53-.205-.54-.178-1.104-.496-1.69-.954l-.19-.147c-.567-.443-.997-.9-1.289-1.372-.292-.47-.47-.94-.532-1.404a3.082 3.082 0 0 1 .107-1.347c.128-.438.338-.843.628-1.215.28-.36.584-.65.91-.873a3.16 3.16 0 0 1 1.027-.478c.354-.089.714-.102 1.08-.039.372.057.737.194 1.095.412l-.739.946c-.497-.246-.964-.311-1.4-.195-.436.117-.829.4-1.178.847a2.304 2.304 0 0 0-.4.785c-.083.29-.096.599-.038.928.056.318.2.653.432 1.007.236.346.582.697 1.036 1.051l.189.148c.48.374.927.632 1.344.775.41.137.785.196 1.125.177.34-.019.64-.104.9-.256.26-.152.472-.332.634-.54.384-.492.565-.97.541-1.435a1.867 1.867 0 0 0-.536-1.225l.739-.946c.326.336.563.683.71 1.041.14.353.204.713.193 1.08-.007.36-.085.72-.235 1.08-.15.349-.356.69-.617 1.025ZM34.365 37.063l.807-.788 2.522 2.586.688-.67-.169-4.882.962-.938.17 5.433 5.782.496-1.031 1.006-5.06-.445-.688.67 2.69 2.758-.808.787-5.865-6.013ZM45.35 27.141l2.306-1.726c.442-.33.865-.567 1.268-.709.403-.142.78-.199 1.13-.171.352.016.676.114.97.293.29.174.547.41.772.712.225.3.382.618.472.95.084.327.087.665.008 1.013-.077.338-.24.68-.49 1.027-.25.347-.596.686-1.038 1.017l-1.403 1.05 1.942 2.593-.904.676-5.033-6.725Zm4.76 1.654a4 4 0 0 0 .742-.69 1.88 1.88 0 0 0 .344-.663c.06-.214.058-.423-.004-.626a1.761 1.761 0 0 0-.3-.6 1.761 1.761 0 0 0-.49-.457 1.097 1.097 0 0 0-.6-.18 1.748 1.748 0 0 0-.725.152 3.62 3.62 0 0 0-.88.508l-1.354 1.014 1.913 2.555 1.354-1.013ZM63.696 25.116a4.109 4.109 0 0 1-1.331.473 3.305 3.305 0 0 1-1.412-.087c-.469-.131-.925-.38-1.369-.745-.444-.365-.85-.876-1.218-1.531l-.118-.21c-.353-.627-.566-1.219-.64-1.774-.073-.555-.042-1.064.093-1.525.132-.468.353-.882.666-1.241a4.11 4.11 0 0 1 1.095-.891 4.11 4.11 0 0 1 1.331-.473 3.17 3.17 0 0 1 1.406.077c.465.124.915.362 1.351.713.437.352.83.841 1.184 1.469l.117.21c.369.655.594 1.267.675 1.836.081.57.056 1.088-.075 1.557a3.306 3.306 0 0 1-.66 1.251 4.11 4.11 0 0 1-1.095.891Zm-.494-.878c.286-.161.532-.368.738-.622.206-.253.348-.548.425-.885a2.89 2.89 0 0 0-.013-1.15c-.078-.433-.26-.904-.547-1.413l-.117-.21c-.27-.48-.565-.856-.883-1.128-.314-.282-.633-.474-.957-.576a2.133 2.133 0 0 0-.977-.098 2.558 2.558 0 0 0-.915.307c-.286.161-.532.368-.738.622a2.134 2.134 0 0 0-.425.885c-.08.33-.085.705-.015 1.124.074.408.246.853.516 1.334l.118.21c.286.509.59.911.913 1.207.325.285.653.486.985.603.328.11.654.142.977.097.324-.044.629-.147.915-.307ZM72.524 20.62a1.823 1.823 0 0 1-.347.1l-.407-1.027a.998.998 0 0 0 .172-.056c.149-.058.27-.132.364-.221a.74.74 0 0 0 .195-.387c.037-.17.037-.385.003-.646a5.908 5.908 0 0 0-.206-.977 21.558 21.558 0 0 0-.465-1.403 75.194 75.194 0 0 0-.733-1.917l-.706-1.786 5.244-2.075 3.09 7.81-1.048.416-2.729-6.896-3.146 1.245.432 1.094c.327.826.594 1.554.801 2.187.204.624.356 1.17.455 1.64.1.468.15.865.15 1.192 0 .327-.046.603-.137.828a1.27 1.27 0 0 1-.385.527c-.167.143-.366.26-.597.352ZM85.394 15.964a1.834 1.834 0 0 1-.358.051l-.264-1.072c.04-.001.1-.012.177-.03.156-.04.286-.096.39-.171a.74.74 0 0 0 .247-.357c.058-.163.088-.377.09-.64a5.905 5.905 0 0 0-.073-.996c-.059-.406-.15-.89-.272-1.453a75.349 75.349 0 0 0-.467-1.998l-.46-1.865 5.477-1.349 2.01 8.156-1.096.27-1.774-7.2-3.286.809.281 1.142c.213.862.38 1.62.5 2.275.117.646.194 1.208.23 1.686.034.477.03.878-.014 1.201a2.205 2.205 0 0 1-.247.803 1.271 1.271 0 0 1-.453.47c-.184.12-.397.209-.638.268ZM108.243 10.254a1.473 1.473 0 0 1-.568-.081 1.535 1.535 0 0 1-.471-.29 1.529 1.529 0 0 1-.333-.44 1.471 1.471 0 0 1-.136-.558c-.009-.2.018-.39.081-.569.071-.18.168-.336.29-.47.121-.134.268-.242.441-.322.172-.088.357-.138.557-.147.2-.01.39.021.569.092a1.364 1.364 0 0 1 .792.72c.088.171.137.357.147.557.01.2-.021.39-.093.569-.063.179-.155.336-.277.47a1.544 1.544 0 0 1-.441.333c-.172.08-.358.126-.558.136ZM127.7 13.134a3.77 3.77 0 0 1-1.295-.431 3.145 3.145 0 0 1-1.006-.923c-.273-.396-.467-.872-.579-1.43-.113-.559-.115-1.206-.008-1.942l.035-.238c.104-.712.288-1.312.553-1.798.266-.487.585-.873.958-1.158a3.085 3.085 0 0 1 1.223-.574c.444-.105.9-.123 1.367-.055.451.066.854.185 1.209.358.362.175.67.393.922.657.253.263.443.57.57.92.134.35.195.735.183 1.154l-1.188-.173c-.032-.555-.207-.993-.523-1.314-.317-.32-.757-.522-1.319-.604a2.305 2.305 0 0 0-.879.041c-.293.07-.569.212-.826.425-.249.206-.469.498-.661.874-.185.377-.319.85-.402 1.42l-.034.238c-.088.602-.091 1.119-.008 1.551.083.425.217.78.402 1.066.185.285.407.504.668.655.261.151.522.246.783.284.618.09 1.123.01 1.515-.24.392-.25.659-.607.799-1.072l1.188.174c-.131.45-.315.827-.554 1.132-.237.297-.518.53-.842.701a2.955 2.955 0 0 1-1.055.332 4.685 4.685 0 0 1-1.196-.03ZM140.49 6.954l1.084.312-.999 3.471.923.266 4.159-2.562 1.291.371-4.637 2.837 2.43 5.269-1.384-.398-2.118-4.618-.922-.265-1.066 3.701-1.084-.311 2.323-8.073ZM154.548 11.59l2.641 1.15c.506.22.921.47 1.244.75.323.28.559.58.708.898.16.314.235.643.225.988a2.692 2.692 0 0 1-.236 1.022c-.15.345-.348.639-.593.88a2.124 2.124 0 0 1-.876.51c-.331.1-.71.127-1.135.081-.425-.045-.891-.178-1.397-.398l-1.606-.7-1.293 2.97-1.035-.45 3.353-7.701Zm.919 4.954c.367.16.689.261.967.304.289.038.538.029.746-.03.216-.053.396-.158.542-.313a1.77 1.77 0 0 0 .374-.557c.095-.22.147-.438.153-.653a1.097 1.097 0 0 0-.14-.61 1.75 1.75 0 0 0-.491-.555 3.636 3.636 0 0 0-.877-.512l-1.551-.676-1.274 2.927 1.551.675ZM165.386 26.53a4.102 4.102 0 0 1-1.069-.923 3.302 3.302 0 0 1-.623-1.27c-.118-.472-.128-.991-.03-1.558.098-.567.34-1.172.728-1.817l.123-.206c.371-.617.78-1.095 1.226-1.433.446-.339.903-.564 1.371-.674.472-.118.941-.13 1.407-.037a4.1 4.1 0 0 1 1.317.512c.412.247.768.555 1.07.922.301.368.511.788.629 1.26.122.465.138.974.048 1.527-.089.553-.32 1.138-.69 1.755l-.124.206c-.387.645-.808 1.143-1.262 1.495-.455.353-.918.588-1.39.705a3.305 3.305 0 0 1-1.414.047 4.117 4.117 0 0 1-1.317-.511Zm.519-.864c.282.168.583.28.906.334.322.053.649.03.979-.07.335-.107.666-.3.993-.58.337-.282.657-.673.957-1.174l.124-.206c.284-.473.466-.915.544-1.325.09-.413.099-.785.028-1.117a2.131 2.131 0 0 0-.399-.898 2.567 2.567 0 0 0-.72-.642 2.56 2.56 0 0 0-.905-.334 2.136 2.136 0 0 0-.98.07c-.326.092-.654.273-.984.542-.318.266-.62.635-.904 1.109l-.124.205c-.3.5-.5.964-.597 1.391a3.034 3.034 0 0 0-.036 1.154c.067.34.2.639.399.898.198.26.438.474.719.643ZM173.662 31.977a1.887 1.887 0 0 1-.258-.254l.691-.86c.026.03.071.071.133.121.125.1.249.17.373.207a.74.74 0 0 0 .433-.022c.165-.052.352-.158.562-.317.217-.155.466-.376.747-.663.287-.293.617-.66.99-1.098.373-.44.807-.968 1.303-1.586l1.202-1.497 4.398 3.53-5.258 6.551-.879-.706 4.641-5.783-2.639-2.119-.736.918a39.318 39.318 0 0 1-1.504 1.778c-.441.486-.841.889-1.199 1.207a5.938 5.938 0 0 1-.963.72 2.203 2.203 0 0 1-.787.29c-.23.032-.446.007-.649-.073a2.09 2.09 0 0 1-.601-.344ZM184.077 40.856a1.795 1.795 0 0 1-.222-.286l.801-.76c.022.035.06.081.115.14.11.115.224.2.341.254a.74.74 0 0 0 .432.037c.171-.03.371-.109.601-.239.235-.124.512-.309.829-.555.324-.252.7-.57 1.129-.955.429-.385.93-.85 1.505-1.395L191 35.774l3.883 4.091-6.093 5.782-.777-.818 5.38-5.105-2.33-2.455-.853.81a39.338 39.338 0 0 1-1.73 1.559c-.503.422-.954.767-1.351 1.034a5.954 5.954 0 0 1-1.051.584 2.202 2.202 0 0 1-.82.182 1.27 1.27 0 0 1-.632-.16 2.091 2.091 0 0 1-.549-.423ZM200.346 57.886a1.486 1.486 0 0 1-.211-.534 1.52 1.52 0 0 1 .236-1.06c.11-.155.25-.286.419-.394.168-.107.346-.177.534-.21.191-.028.375-.021.552.018.176.04.342.114.498.224.161.106.296.243.403.412.108.169.175.349.201.54.034.187.031.37-.008.546a1.38 1.38 0 0 1-.224.498 1.35 1.35 0 0 1-.412.403 1.349 1.349 0 0 1-.54.202c-.188.033-.369.03-.546-.01a1.537 1.537 0 0 1-.508-.217 1.49 1.49 0 0 1-.394-.418ZM207.471 76.219a3.786 3.786 0 0 1-.266-1.34c.002-.456.104-.899.305-1.33.208-.433.527-.837.956-1.211.429-.374.991-.697 1.683-.968l.224-.087c.671-.262 1.283-.399 1.837-.41.554-.01 1.048.077 1.48.26.432.183.8.443 1.104.78.311.333.552.72.724 1.16.166.424.262.833.287 1.227.028.401-.01.777-.114 1.127-.103.35-.276.666-.517.95-.239.29-.543.534-.913.73l-.437-1.118c.466-.302.76-.67.882-1.105.122-.434.08-.916-.127-1.445a2.314 2.314 0 0 0-.471-.743 2.035 2.035 0 0 0-.778-.508c-.302-.113-.665-.16-1.087-.142-.419.027-.897.145-1.433.355l-.224.087c-.566.221-1.016.475-1.351.76-.328.283-.57.575-.727.877a1.99 1.99 0 0 0-.239.905 2.2 2.2 0 0 0 .141.822c.227.58.546.98.958 1.197.411.217.853.272 1.327.164l.437 1.118c-.456.109-.875.135-1.258.079a2.66 2.66 0 0 1-1.026-.385 2.96 2.96 0 0 1-.81-.752 4.736 4.736 0 0 1-.567-1.054ZM219.172 84.275l.265 1.096-3.511.85.226.933 4.284 2.346.316 1.306-4.759-2.626-3.377 4.719-.338-1.4 2.964-4.125-.225-.933-3.744.906-.266-1.096 8.165-1.977ZM222.1 98.785l.307 2.863c.059.549.047 1.033-.037 1.453a2.741 2.741 0 0 1-.429 1.06 2.013 2.013 0 0 1-.747.683 2.687 2.687 0 0 1-1.006.301 2.768 2.768 0 0 1-1.058-.079 2.133 2.133 0 0 1-.876-.509 2.852 2.852 0 0 1-.632-.946c-.171-.392-.286-.863-.345-1.411l-.187-1.742-3.222.346-.12-1.122 8.352-.897Zm-3.851 3.25c.043.398.114.728.215.991.109.269.241.481.394.633.154.161.334.266.541.316.207.058.43.075.669.049.238-.026.453-.089.643-.19.191-.093.345-.234.462-.424.117-.181.196-.415.238-.701.05-.279.054-.617.012-1.015l-.181-1.683-3.174.342.181 1.682ZM214.48 115.596c.011-.48.102-.942.273-1.386.178-.444.443-.834.795-1.17.352-.336.799-.601 1.339-.797.541-.195 1.187-.284 1.939-.267l.24.006c.72.017 1.337.135 1.852.355.515.221.937.507 1.264.858.336.352.579.754.728 1.206.15.451.219.917.208 1.397-.011.48-.102.942-.273 1.386-.17.444-.431.834-.783 1.17-.344.336-.779.602-1.303.798-.525.195-1.147.285-1.867.268l-.24-.006c-.752-.017-1.393-.136-1.924-.357-.531-.22-.965-.506-1.3-.858a3.296 3.296 0 0 1-.74-1.206 4.1 4.1 0 0 1-.208-1.397Zm1.008.023c-.008.328.045.646.158.952.113.307.294.579.545.817.258.238.59.43.995.576.412.153.91.237 1.494.251l.24.005c.552.013 1.025-.048 1.421-.182.403-.127.731-.303.984-.53.262-.226.456-.489.583-.79.127-.301.194-.616.202-.944a2.55 2.55 0 0 0-.158-.952 2.136 2.136 0 0 0-.545-.817c-.242-.237-.562-.433-.958-.586-.389-.145-.859-.224-1.411-.237l-.24-.006c-.584-.014-1.085.043-1.504.169a3.038 3.038 0 0 0-1.021.54 2.13 2.13 0 0 0-.583.791 2.568 2.568 0 0 0-.202.943ZM213.842 125.483c.019-.118.05-.235.093-.35l1.09.175a.96.96 0 0 0-.04.176c-.026.158-.024.3.004.426a.743.743 0 0 0 .234.365c.127.118.312.228.554.332.242.111.557.219.945.321.397.104.878.21 1.445.316.566.107 1.24.223 2.022.348l1.896.304-.891 5.569-8.295-1.327.179-1.114 7.322 1.171.535-3.341-1.161-.186c-.877-.14-1.64-.283-2.289-.427a16.071 16.071 0 0 1-1.643-.445 6.004 6.004 0 0 1-1.102-.48 2.236 2.236 0 0 1-.643-.54 1.277 1.277 0 0 1-.256-.6 2.093 2.093 0 0 1 .001-.693ZM211.28 138.927c.035-.115.081-.226.139-.334l1.057.319a.936.936 0 0 0-.064.169 1.138 1.138 0 0 0-.053.423c.017.139.077.27.182.394.11.133.278.268.505.403.224.143.522.292.893.446.379.156.842.326 1.388.508.547.182 1.199.388 1.957.617l1.838.557-1.634 5.398-8.04-2.434.327-1.079 7.098 2.148.98-3.239-1.125-.34a40.476 40.476 0 0 1-2.211-.732 16.145 16.145 0 0 1-1.567-.663 5.883 5.883 0 0 1-1.027-.624 2.178 2.178 0 0 1-.564-.622 1.266 1.266 0 0 1-.173-.629c-.009-.22.022-.449.094-.686ZM204.533 161.492c.094-.176.214-.326.36-.447.153-.118.316-.204.489-.257.173-.054.356-.074.549-.063.189.019.372.075.549.169.177.094.326.213.448.359.118.154.203.317.257.49.053.173.07.354.051.543a1.334 1.334 0 0 1-.158.555 1.346 1.346 0 0 1-.37.442 1.361 1.361 0 0 1-1.022.314 1.34 1.34 0 0 1-.554-.158 1.362 1.362 0 0 1-.443-.37 1.382 1.382 0 0 1-.262-.479 1.535 1.535 0 0 1-.062-.549c.018-.189.075-.372.168-.549ZM192.128 176.755a3.757 3.757 0 0 1 1.032-.893 3.143 3.143 0 0 1 1.307-.394c.48-.034.989.044 1.526.231.537.188 1.095.516 1.674.984l.186.151c.56.453.981.918 1.265 1.394.283.477.452.948.507 1.414.055.467.011.915-.131 1.345a3.61 3.61 0 0 1-.65 1.204c-.286.354-.595.64-.925.856a3.145 3.145 0 0 1-1.035.459 2.59 2.59 0 0 1-1.081.021 2.97 2.97 0 0 1-1.087-.432l.755-.933c.494.255.959.329 1.397.22.438-.109.836-.384 1.193-.826.186-.23.324-.489.413-.777.089-.288.108-.597.056-.927-.051-.319-.189-.657-.414-1.015-.231-.351-.57-.707-1.018-1.07l-.186-.151c-.473-.382-.916-.648-1.33-.798-.408-.145-.782-.211-1.122-.198a1.984 1.984 0 0 0-.904.241 2.191 2.191 0 0 0-.644.528c-.393.485-.582.96-.567 1.425.015.465.187.877.514 1.234l-.755.933a3.314 3.314 0 0 1-.691-1.053 2.668 2.668 0 0 1-.174-1.082c.014-.36.098-.719.254-1.077.157-.346.369-.684.635-1.014ZM190.918 190.909l-.822.773-2.476-2.63-.699.658.082 4.884-.979.921-.073-5.435-5.771-.599 1.048-.987 5.052.535.699-.658-2.64-2.805.821-.773 5.758 6.116ZM179.758 200.634l-2.337 1.685c-.447.323-.874.551-1.28.686s-.783.186-1.133.152a2.01 2.01 0 0 1-.964-.311 2.686 2.686 0 0 1-.76-.725 2.797 2.797 0 0 1-.454-.959 2.118 2.118 0 0 1 .009-1.013c.083-.336.253-.675.509-1.018.256-.342.608-.675 1.056-.998l1.421-1.024-1.895-2.628.915-.66 4.913 6.813Zm-4.73-1.738c-.325.234-.576.46-.755.678-.18.228-.299.447-.355.655a1.09 1.09 0 0 0-.007.627c.052.209.148.411.288.605.141.195.302.35.484.465.175.121.374.184.596.192.216.012.459-.035.728-.14.267-.094.563-.259.888-.492l1.372-.99-1.867-2.589-1.372.989ZM161.379 202.333a4.115 4.115 0 0 1 1.339-.45 3.311 3.311 0 0 1 1.411.113c.466.14.917.396 1.355.769.437.373.834.891 1.191 1.553l.114.211c.341.634.544 1.229.608 1.786.063.556.023 1.064-.12 1.523-.14.466-.369.875-.687 1.229a4.103 4.103 0 0 1-1.112.871 4.107 4.107 0 0 1-1.339.45c-.47.071-.939.037-1.405-.102-.462-.133-.908-.379-1.338-.738-.429-.359-.815-.855-1.157-1.489l-.114-.212c-.356-.662-.57-1.278-.641-1.848-.072-.571-.037-1.089.102-1.555.14-.466.367-.879.682-1.24a4.098 4.098 0 0 1 1.111-.871Zm.478.887a2.576 2.576 0 0 0-.749.608c-.21.25-.357.543-.44.878a2.906 2.906 0 0 0-.008 1.149c.071.435.245.909.522 1.423l.114.211c.262.486.549.868.862 1.144.309.288.625.486.947.594.325.116.65.154.975.115.325-.038.631-.135.92-.291.289-.156.538-.358.749-.608.211-.25.357-.543.44-.878.087-.328.099-.703.036-1.123-.067-.41-.231-.858-.493-1.344l-.113-.211c-.277-.514-.575-.922-.892-1.224a3.047 3.047 0 0 0-.974-.619 2.121 2.121 0 0 0-.976-.115 2.545 2.545 0 0 0-.92.291ZM152.472 206.671c.112-.042.229-.073.349-.092l.388 1.033c-.04.007-.098.024-.172.052-.15.056-.273.128-.368.215a.74.74 0 0 0-.203.384 1.954 1.954 0 0 0-.013.646c.022.265.085.591.188.98.106.396.253.866.44 1.411s.42 1.188.699 1.93l.674 1.798-5.28 1.981-2.952-7.864 1.056-.397 2.606 6.944 3.168-1.189-.413-1.101a39.552 39.552 0 0 1-.762-2.201 16.21 16.21 0 0 1-.426-1.647 5.972 5.972 0 0 1-.128-1.196c.006-.326.056-.602.152-.825.09-.214.222-.387.394-.52.17-.141.371-.255.603-.342ZM139.522 211.097c.117-.026.236-.041.359-.045l.244 1.077c-.04.001-.1.01-.178.028a1.12 1.12 0 0 0-.393.164.73.73 0 0 0-.252.352 1.924 1.924 0 0 0-.101.639c-.014.265.005.597.054.996.052.407.134.893.246 1.458.112.565.256 1.234.432 2.006l.426 1.872-5.499 1.252-1.864-8.191 1.1-.25 1.645 7.231 3.3-.751-.261-1.146a38.984 38.984 0 0 1-.458-2.284 16.13 16.13 0 0 1-.2-1.689 5.886 5.886 0 0 1 .034-1.202c.05-.323.137-.589.262-.798.118-.199.272-.353.461-.462.186-.116.401-.202.643-.257ZM116.574 216.401c.2-.006.389.024.567.091a1.52 1.52 0 0 1 .791.744c.077.174.119.36.125.56.006.2-.024.389-.091.567a1.524 1.524 0 0 1-.298.466 1.37 1.37 0 0 1-.446.313c-.174.086-.36.131-.56.138-.2.006-.389-.029-.568-.103a1.38 1.38 0 0 1-.465-.286 1.375 1.375 0 0 1-.313-.447 1.349 1.349 0 0 1-.138-.56c-.006-.2.029-.389.103-.567a1.38 1.38 0 0 1 .286-.465c.124-.132.273-.241.446-.326.174-.077.361-.119.561-.125ZM112.646 152.354a.502.502 0 0 0 .708 0l3.182-3.182a.502.502 0 0 0-.708-.708L113 151.293l-2.828-2.829a.502.502 0 0 0-.708.708l3.182 3.182ZM112.5 74v78h1V74h-1Z" fill="#fff"/></svg></svg>